<mxfile host="app.diagrams.net" agent="Mozilla/5.0 (Macintosh; Intel Mac OS X 10_15_7) AppleWebKit/537.36 (KHTML, like Gecko) Chrome/128.0.0.0 Safari/537.36" version="24.7.16">
  <diagram id="yPxyJZ8AM_hMuL3Unpa9" name="complex gitflow">
    <mxGraphModel dx="1434" dy="761" grid="1" gridSize="10" guides="1" tooltips="1" connect="1" arrows="1" fold="1" page="1" pageScale="1" pageWidth="1100" pageHeight="850" math="0" shadow="0">
      <root>
        <mxCell id="0" />
        <mxCell id="1" parent="0" />
        <mxCell id="uWUnNED6HEl2aK5fdaIb-14" style="edgeStyle=orthogonalEdgeStyle;curved=1;rounded=0;html=1;exitX=1;exitY=0.5;exitPerimeter=0;endArrow=none;endFill=0;jettySize=auto;orthogonalLoop=1;strokeWidth=4;fontSize=15;" parent="1" source="uWUnNED6HEl2aK5fdaIb-15" target="uWUnNED6HEl2aK5fdaIb-17" edge="1">
          <mxGeometry relative="1" as="geometry" />
        </mxCell>
        <mxCell id="uWUnNED6HEl2aK5fdaIb-15" value="" style="verticalLabelPosition=bottom;verticalAlign=top;html=1;strokeWidth=4;shape=mxgraph.flowchart.on-page_reference;plain-purple;gradientColor=none;strokeColor=#000000;fillColor=#D5E8D4;" parent="1" vertex="1">
          <mxGeometry x="533" y="281" width="30" height="30" as="geometry" />
        </mxCell>
        <mxCell id="uWUnNED6HEl2aK5fdaIb-16" style="edgeStyle=orthogonalEdgeStyle;curved=1;rounded=0;html=1;exitX=1;exitY=0.5;exitPerimeter=0;entryX=0;entryY=0.5;entryPerimeter=0;endArrow=none;endFill=0;jettySize=auto;orthogonalLoop=1;strokeWidth=4;fontSize=15;" parent="1" source="uWUnNED6HEl2aK5fdaIb-17" edge="1">
          <mxGeometry relative="1" as="geometry">
            <mxPoint x="743" y="296" as="targetPoint" />
          </mxGeometry>
        </mxCell>
        <mxCell id="uWUnNED6HEl2aK5fdaIb-17" value="" style="verticalLabelPosition=bottom;verticalAlign=top;html=1;strokeWidth=4;shape=mxgraph.flowchart.on-page_reference;plain-purple;gradientColor=none;strokeColor=#000000;fillColor=#D5E8D4;" parent="1" vertex="1">
          <mxGeometry x="640" y="281" width="30" height="30" as="geometry" />
        </mxCell>
        <mxCell id="uWUnNED6HEl2aK5fdaIb-20" value="feature" style="text;html=1;strokeColor=none;fillColor=none;align=left;verticalAlign=middle;whiteSpace=wrap;overflow=hidden;fontSize=14;fontStyle=1;fontFamily=Courier New;" parent="1" vertex="1">
          <mxGeometry x="260" y="286" width="240" height="20" as="geometry" />
        </mxCell>
        <mxCell id="uWUnNED6HEl2aK5fdaIb-93" value="" style="endArrow=classic;html=1;strokeWidth=1;fontFamily=Courier New;fontColor=#009900;" parent="1" edge="1">
          <mxGeometry width="50" height="50" relative="1" as="geometry">
            <mxPoint x="341.25" y="295.5" as="sourcePoint" />
            <mxPoint x="421.25" y="295.5" as="targetPoint" />
          </mxGeometry>
        </mxCell>
        <mxCell id="kRU_ebDMLmPd6IX_ss5e-8" value="" style="endArrow=classic;html=1;strokeWidth=1;fontFamily=Courier New;fontColor=#009900;" edge="1" parent="1">
          <mxGeometry width="50" height="50" relative="1" as="geometry">
            <mxPoint x="341.25" y="199.5" as="sourcePoint" />
            <mxPoint x="421.25" y="199.5" as="targetPoint" />
          </mxGeometry>
        </mxCell>
        <mxCell id="kRU_ebDMLmPd6IX_ss5e-9" value="mster" style="text;html=1;strokeColor=none;fillColor=none;align=left;verticalAlign=middle;whiteSpace=wrap;overflow=hidden;fontSize=14;fontStyle=1;fontFamily=Courier New;" vertex="1" parent="1">
          <mxGeometry x="270" y="190" width="240" height="20" as="geometry" />
        </mxCell>
        <mxCell id="kRU_ebDMLmPd6IX_ss5e-11" value="" style="verticalLabelPosition=bottom;verticalAlign=top;html=1;strokeWidth=4;shape=mxgraph.flowchart.on-page_reference;plain-purple;gradientColor=none;strokeColor=#000000;fillColor=#D5E8D4;" vertex="1" parent="1">
          <mxGeometry x="440" y="185" width="30" height="30" as="geometry" />
        </mxCell>
        <mxCell id="kRU_ebDMLmPd6IX_ss5e-13" value="" style="verticalLabelPosition=bottom;verticalAlign=top;html=1;strokeWidth=4;shape=mxgraph.flowchart.on-page_reference;strokeColor=#b85450;fillColor=#f8cecc;" vertex="1" parent="1">
          <mxGeometry x="840" y="281" width="30" height="30" as="geometry" />
        </mxCell>
        <mxCell id="kRU_ebDMLmPd6IX_ss5e-17" value="" style="verticalLabelPosition=bottom;verticalAlign=top;html=1;strokeWidth=4;shape=mxgraph.flowchart.on-page_reference;plain-purple;gradientColor=none;strokeColor=#000000;fillColor=#D5E8D4;" vertex="1" parent="1">
          <mxGeometry x="740" y="281" width="30" height="30" as="geometry" />
        </mxCell>
        <mxCell id="kRU_ebDMLmPd6IX_ss5e-23" style="edgeStyle=orthogonalEdgeStyle;curved=1;rounded=0;html=1;exitX=1;exitY=0.5;exitPerimeter=0;endArrow=none;endFill=0;jettySize=auto;orthogonalLoop=1;strokeWidth=4;fontSize=15;exitDx=0;exitDy=0;entryX=0;entryY=0.5;entryDx=0;entryDy=0;entryPerimeter=0;" edge="1" parent="1" source="kRU_ebDMLmPd6IX_ss5e-11" target="uWUnNED6HEl2aK5fdaIb-15">
          <mxGeometry relative="1" as="geometry">
            <mxPoint x="480" y="210" as="sourcePoint" />
            <mxPoint x="569" y="210" as="targetPoint" />
          </mxGeometry>
        </mxCell>
        <mxCell id="kRU_ebDMLmPd6IX_ss5e-25" value="master有更新" style="text;html=1;align=center;verticalAlign=middle;whiteSpace=wrap;rounded=0;" vertex="1" parent="1">
          <mxGeometry x="563" y="150" width="95" height="30" as="geometry" />
        </mxCell>
        <mxCell id="kRU_ebDMLmPd6IX_ss5e-26" style="edgeStyle=orthogonalEdgeStyle;curved=1;rounded=0;html=1;exitX=1;exitY=0.5;exitPerimeter=0;endArrow=none;endFill=0;jettySize=auto;orthogonalLoop=1;strokeWidth=4;fontSize=15;" edge="1" parent="1" source="kRU_ebDMLmPd6IX_ss5e-27" target="kRU_ebDMLmPd6IX_ss5e-29">
          <mxGeometry relative="1" as="geometry" />
        </mxCell>
        <mxCell id="kRU_ebDMLmPd6IX_ss5e-27" value="" style="verticalLabelPosition=bottom;verticalAlign=top;html=1;strokeWidth=4;shape=mxgraph.flowchart.on-page_reference;plain-purple;gradientColor=none;strokeColor=#000000;fillColor=#D5E8D4;" vertex="1" parent="1">
          <mxGeometry x="543" y="557" width="30" height="30" as="geometry" />
        </mxCell>
        <mxCell id="kRU_ebDMLmPd6IX_ss5e-28" style="edgeStyle=orthogonalEdgeStyle;curved=1;rounded=0;html=1;exitX=1;exitY=0.5;exitPerimeter=0;entryX=0;entryY=0.5;entryPerimeter=0;endArrow=none;endFill=0;jettySize=auto;orthogonalLoop=1;strokeWidth=4;fontSize=15;" edge="1" parent="1" source="kRU_ebDMLmPd6IX_ss5e-29">
          <mxGeometry relative="1" as="geometry">
            <mxPoint x="753" y="572" as="targetPoint" />
          </mxGeometry>
        </mxCell>
        <mxCell id="kRU_ebDMLmPd6IX_ss5e-29" value="" style="verticalLabelPosition=bottom;verticalAlign=top;html=1;strokeWidth=4;shape=mxgraph.flowchart.on-page_reference;plain-purple;gradientColor=none;strokeColor=#000000;fillColor=#D5E8D4;" vertex="1" parent="1">
          <mxGeometry x="650" y="557" width="30" height="30" as="geometry" />
        </mxCell>
        <mxCell id="kRU_ebDMLmPd6IX_ss5e-30" value="feature" style="text;html=1;strokeColor=none;fillColor=none;align=left;verticalAlign=middle;whiteSpace=wrap;overflow=hidden;fontSize=14;fontStyle=1;fontFamily=Courier New;" vertex="1" parent="1">
          <mxGeometry x="270" y="562" width="240" height="20" as="geometry" />
        </mxCell>
        <mxCell id="kRU_ebDMLmPd6IX_ss5e-31" value="" style="endArrow=classic;html=1;strokeWidth=1;fontFamily=Courier New;fontColor=#009900;" edge="1" parent="1">
          <mxGeometry width="50" height="50" relative="1" as="geometry">
            <mxPoint x="351.25" y="571.5" as="sourcePoint" />
            <mxPoint x="431.25" y="571.5" as="targetPoint" />
          </mxGeometry>
        </mxCell>
        <mxCell id="kRU_ebDMLmPd6IX_ss5e-32" value="" style="endArrow=classic;html=1;strokeWidth=1;fontFamily=Courier New;fontColor=#009900;" edge="1" parent="1">
          <mxGeometry width="50" height="50" relative="1" as="geometry">
            <mxPoint x="351.25" y="475.5" as="sourcePoint" />
            <mxPoint x="431.25" y="475.5" as="targetPoint" />
          </mxGeometry>
        </mxCell>
        <mxCell id="kRU_ebDMLmPd6IX_ss5e-33" value="mster" style="text;html=1;strokeColor=none;fillColor=none;align=left;verticalAlign=middle;whiteSpace=wrap;overflow=hidden;fontSize=14;fontStyle=1;fontFamily=Courier New;" vertex="1" parent="1">
          <mxGeometry x="280" y="466" width="240" height="20" as="geometry" />
        </mxCell>
        <mxCell id="kRU_ebDMLmPd6IX_ss5e-35" value="" style="verticalLabelPosition=bottom;verticalAlign=top;html=1;strokeWidth=4;shape=mxgraph.flowchart.on-page_reference;plain-purple;gradientColor=none;strokeColor=#000000;fillColor=#D5E8D4;" vertex="1" parent="1">
          <mxGeometry x="450" y="461" width="30" height="30" as="geometry" />
        </mxCell>
        <mxCell id="kRU_ebDMLmPd6IX_ss5e-37" value="" style="verticalLabelPosition=bottom;verticalAlign=top;html=1;strokeWidth=4;shape=mxgraph.flowchart.on-page_reference;plain-purple;gradientColor=none;strokeColor=#000000;fillColor=#D5E8D4;" vertex="1" parent="1">
          <mxGeometry x="750" y="557" width="30" height="30" as="geometry" />
        </mxCell>
        <mxCell id="kRU_ebDMLmPd6IX_ss5e-39" style="edgeStyle=orthogonalEdgeStyle;curved=1;rounded=0;html=1;endArrow=none;endFill=0;jettySize=auto;orthogonalLoop=1;strokeWidth=4;fontSize=15;entryX=0;entryY=0.5;entryDx=0;entryDy=0;entryPerimeter=0;dashed=1;" edge="1" parent="1" target="kRU_ebDMLmPd6IX_ss5e-27">
          <mxGeometry relative="1" as="geometry">
            <mxPoint x="480" y="480" as="sourcePoint" />
            <mxPoint x="579" y="486" as="targetPoint" />
          </mxGeometry>
        </mxCell>
        <mxCell id="kRU_ebDMLmPd6IX_ss5e-42" style="edgeStyle=orthogonalEdgeStyle;curved=1;rounded=0;html=1;endArrow=none;endFill=0;jettySize=auto;orthogonalLoop=1;strokeWidth=4;fontSize=15;" edge="1" parent="1">
          <mxGeometry relative="1" as="geometry">
            <mxPoint x="470" y="201" as="sourcePoint" />
            <mxPoint x="590" y="201" as="targetPoint" />
          </mxGeometry>
        </mxCell>
        <mxCell id="kRU_ebDMLmPd6IX_ss5e-43" value="" style="verticalLabelPosition=bottom;verticalAlign=top;html=1;strokeWidth=4;shape=mxgraph.flowchart.on-page_reference;strokeColor=#b85450;fillColor=#f8cecc;" vertex="1" parent="1">
          <mxGeometry x="590" y="185" width="30" height="30" as="geometry" />
        </mxCell>
        <mxCell id="kRU_ebDMLmPd6IX_ss5e-44" style="edgeStyle=orthogonalEdgeStyle;curved=1;rounded=0;html=1;exitX=1;exitY=0.5;exitPerimeter=0;entryX=0;entryY=0.5;entryPerimeter=0;endArrow=none;endFill=0;jettySize=auto;orthogonalLoop=1;strokeWidth=4;fontSize=15;entryDx=0;entryDy=0;exitDx=0;exitDy=0;" edge="1" parent="1" source="kRU_ebDMLmPd6IX_ss5e-17" target="kRU_ebDMLmPd6IX_ss5e-13">
          <mxGeometry relative="1" as="geometry">
            <mxPoint x="680" y="306" as="sourcePoint" />
            <mxPoint x="753" y="306" as="targetPoint" />
          </mxGeometry>
        </mxCell>
        <mxCell id="kRU_ebDMLmPd6IX_ss5e-45" style="edgeStyle=orthogonalEdgeStyle;curved=1;rounded=0;html=1;exitX=1;exitY=0.5;exitPerimeter=0;endArrow=none;endFill=0;jettySize=auto;orthogonalLoop=1;strokeWidth=4;fontSize=15;exitDx=0;exitDy=0;" edge="1" parent="1" source="kRU_ebDMLmPd6IX_ss5e-43">
          <mxGeometry relative="1" as="geometry">
            <mxPoint x="680" y="306" as="sourcePoint" />
            <mxPoint x="840" y="290" as="targetPoint" />
          </mxGeometry>
        </mxCell>
        <mxCell id="kRU_ebDMLmPd6IX_ss5e-46" value="merge" style="text;html=1;align=center;verticalAlign=middle;whiteSpace=wrap;rounded=0;" vertex="1" parent="1">
          <mxGeometry x="807.5" y="306" width="95" height="30" as="geometry" />
        </mxCell>
        <mxCell id="kRU_ebDMLmPd6IX_ss5e-47" style="edgeStyle=orthogonalEdgeStyle;curved=1;rounded=0;html=1;exitX=1;exitY=0.5;exitPerimeter=0;endArrow=none;endFill=0;jettySize=auto;orthogonalLoop=1;strokeWidth=4;fontSize=15;exitDx=0;exitDy=0;" edge="1" parent="1" source="kRU_ebDMLmPd6IX_ss5e-13">
          <mxGeometry relative="1" as="geometry">
            <mxPoint x="780" y="306" as="sourcePoint" />
            <mxPoint x="970" y="296" as="targetPoint" />
          </mxGeometry>
        </mxCell>
        <mxCell id="kRU_ebDMLmPd6IX_ss5e-48" value="" style="verticalLabelPosition=bottom;verticalAlign=top;html=1;strokeWidth=4;shape=mxgraph.flowchart.on-page_reference;strokeColor=#b85450;fillColor=#f8cecc;" vertex="1" parent="1">
          <mxGeometry x="573" y="461" width="30" height="30" as="geometry" />
        </mxCell>
        <mxCell id="kRU_ebDMLmPd6IX_ss5e-50" value="master有更新" style="text;html=1;align=center;verticalAlign=middle;whiteSpace=wrap;rounded=0;" vertex="1" parent="1">
          <mxGeometry x="543" y="425" width="95" height="30" as="geometry" />
        </mxCell>
        <mxCell id="kRU_ebDMLmPd6IX_ss5e-52" style="edgeStyle=orthogonalEdgeStyle;curved=1;rounded=0;html=1;exitX=1;exitY=0.5;exitPerimeter=0;endArrow=none;endFill=0;jettySize=auto;orthogonalLoop=1;strokeWidth=4;fontSize=15;exitDx=0;exitDy=0;entryX=0;entryY=0.5;entryDx=0;entryDy=0;entryPerimeter=0;" edge="1" parent="1" source="kRU_ebDMLmPd6IX_ss5e-35" target="kRU_ebDMLmPd6IX_ss5e-48">
          <mxGeometry relative="1" as="geometry">
            <mxPoint x="583" y="582" as="sourcePoint" />
            <mxPoint x="660" y="582" as="targetPoint" />
          </mxGeometry>
        </mxCell>
        <mxCell id="kRU_ebDMLmPd6IX_ss5e-53" style="edgeStyle=orthogonalEdgeStyle;curved=1;rounded=0;html=1;exitX=1;exitY=0.5;exitPerimeter=0;endArrow=none;endFill=0;jettySize=auto;orthogonalLoop=1;strokeWidth=4;fontSize=15;exitDx=0;exitDy=0;entryX=0;entryY=0.5;entryDx=0;entryDy=0;entryPerimeter=0;" edge="1" parent="1" source="kRU_ebDMLmPd6IX_ss5e-48" target="kRU_ebDMLmPd6IX_ss5e-27">
          <mxGeometry relative="1" as="geometry">
            <mxPoint x="583" y="582" as="sourcePoint" />
            <mxPoint x="660" y="582" as="targetPoint" />
          </mxGeometry>
        </mxCell>
        <mxCell id="kRU_ebDMLmPd6IX_ss5e-54" style="edgeStyle=orthogonalEdgeStyle;curved=1;rounded=0;html=1;exitX=1;exitY=0.5;exitPerimeter=0;endArrow=none;endFill=0;jettySize=auto;orthogonalLoop=1;strokeWidth=4;fontSize=15;exitDx=0;exitDy=0;" edge="1" parent="1" source="kRU_ebDMLmPd6IX_ss5e-37">
          <mxGeometry relative="1" as="geometry">
            <mxPoint x="830" y="571.5" as="sourcePoint" />
            <mxPoint x="870" y="572" as="targetPoint" />
          </mxGeometry>
        </mxCell>
        <mxCell id="kRU_ebDMLmPd6IX_ss5e-55" value="rebase" style="text;html=1;align=center;verticalAlign=middle;whiteSpace=wrap;rounded=0;" vertex="1" parent="1">
          <mxGeometry x="617.5" y="491" width="95" height="30" as="geometry" />
        </mxCell>
      </root>
    </mxGraphModel>
  </diagram>
</mxfile>
